:SAMPLES-PER-SECOND 30
:FULLY-SPECIFIED
:DEGREES
147
root  -4.905 39.739 -29.4207 93.629 82.9739 97.3263
RightUpLeg  -18.6037 -5.73554 -11.2982
RightLeg  60.1597 -1.4731 -3.27735
RightFoot  6.36541 -0.443904 3.12429
RightToes  0.000482159 0.542163 -0.142577
Spine  11.3798 0.199626 -5.17598
Spine1  13.6105 0.134366 -1.31842
HEad  1.365 -0.178002 0.935395
LeftShoulder1  7.70701 -12.4154 -42.032
LeftArm  -12.8859 14.0312 -17.061
LeftForeArm  38.4328 -76.7216 -54.0588
LeftHand  -0.25398 0.0180481 5.50724
RightShoulder  5.78769 10.1142 36.5056
RightArm  -10.7133 -19.0942 28.6622
RightForeArm  57.6009 77.4867 106.336
RightHand  0.713565 -15.4304 -9.16447
LeftUpLeg  -6.12572 18.7179 -7.75896
LeftLeg  18.2681 9.28089 2.48292
LeftFoot  -7.99826 -0.0360339 2.86537
LeftToes  1.06247e-005 4.65855e-005 -8.18501e-006
148
root  -3.38955 39.9322 -29.8056 90.9104 83.1522 93.9986
RightUpLeg  -22.1104 -7.91745 -9.13326
RightLeg  52.5542 -2.24109 -3.50978
RightFoot  4.6505 -0.347576 2.69218
RightToes  0.000482159 0.542163 -0.142577
Spine  10.6013 -0.167747 -5.01439
Spine1  13.7028 -0.372913 -0.864364
HEad  2.01843 0.473509 0.373535
LeftShoulder1  7.73189 -12.3916 -42.2449
LeftArm  -12.6494 14.0574 -17.4432
LeftForeArm  39.6758 -76.9082 -55.2097
LeftHand  -0.25398 0.0180481 5.50724
RightShoulder  5.68518 10.0371 36.0036
RightArm  -11.2434 -19.8824 28.6102
RightForeArm  60.2234 77.272 109.291
RightHand  0.726297 -15.623 -9.14483
LeftUpLeg  -2.45243 14.0215 -6.8691
LeftLeg  15.4912 14.2626 0.729765
LeftFoot  -9.18572 0.0161874 2.08472
LeftToes  1.06247e-005 4.65855e-005 -8.18501e-006
149
root  -1.83337 39.9187 -30.1536 88.2091 82.7664 90.5069
RightUpLeg  -24.2928 -10.9396 -7.11886
RightLeg  41.8823 -2.68413 -2.88594
RightFoot  2.48611 -0.297112 2.60722
RightToes  0.000482159 0.542163 -0.142577
Spine  9.41289 -0.439159 -5.57913
Spine1  13.9009 -0.790081 -0.556695
HEad  2.40875 1.05434 -0.081039
LeftShoulder1  7.68737 -12.3358 -42.1426
LeftArm  -12.4325 14.0684 -18.0723
LeftForeArm  41.8158 -77.2151 -57.2628
LeftHand  -0.25398 0.0180481 5.50724
RightShoulder  5.59709 9.98286 35.5298
RightArm  -11.6379 -20.6207 28.4107
RightForeArm  63.4518 76.9315 113.095
RightHand  0.76953 -15.9689 -9.32647
LeftUpLeg  0.271907 8.74839 -7.18558
LeftLeg  13.7122 19.8627 -0.716897
LeftFoot  -10.4209 0.0502612 1.60332
LeftToes  1.06247e-005 4.65855e-005 -8.18501e-006
150
root  -0.217596 39.7784 -30.4286 87.9156 82.2369 89.4221
RightUpLeg  -25.2758 -15.8103 -4.31951
RightLeg  28.4137 -1.15288 -1.29898
RightFoot  1.6346 -0.404257 3.63707
RightToes  0.000482159 0.542163 -0.142577
Spine  8.06958 -0.732402 -6.61845
Spine1  14.1027 -1.30114 0.0878595
HEad  2.71765 1.48728 -0.348118
LeftShoulder1  7.61909 -12.2647 -41.9433
LeftArm  -12.3367 13.8784 -18.7014
LeftForeArm  43.3336 -77.4047 -58.5905
LeftHand  -0.25398 0.0180481 5.50724
RightShoulder  5.52459 9.91011 35.2205
RightArm  -12.0077 -21.1393 28.252
RightForeArm  66.3667 76.5731 116.425
RightHand  0.808743 -16.2234 -9.52902
LeftUpLeg  2.71672 5.40156 -7.97931
LeftLeg  12.4385 23.4428 -1.71641
LeftFoot  -12.1995 0.0833388 1.32964
LeftToes  1.06247e-005 4.65855e-005 -8.18501e-006
151
root  1.38994 39.6101 -30.5519 91.5501 82.1385 92.2867
RightUpLeg  -24.962 -18.0547 -2.05745
RightLeg  13.1733 -2.10602 1.02273
RightFoot  2.25738 -0.514399 4.43215
RightToes  0.000482159 0.542163 -0.142577
Spine  7.12387 -0.961937 -7.90848
Spine1  13.9694 -2.05794 1.81626
HEad  3.07247 1.61867 -0.375948
LeftShoulder1  7.60105 -12.2436 -41.8969
LeftArm  -12.2696 13.4303 -19.0725
LeftForeArm  43.4271 -77.3958 -58.4268
LeftHand  -0.25398 0.0180481 5.50724
RightShoulder  5.46603 9.81026 35.0919
RightArm  -12.6095 -21.6152 28.3404
RightForeArm  68.9916 76.2691 118.958
RightHand  0.812529 -16.2019 -9.58461
LeftUpLeg  5.21737 4.75844 -7.94042
LeftLeg  11.1502 23.4384 -2.77275
LeftFoot  -14.2123 0.0946393 0.451419
LeftToes  1.06247e-005 4.65855e-005 -8.18501e-006
152
root  3.03844 39.2543 -30.4653 92.1269 81.7659 91.9291
RightUpLeg  -23.1721 -7.26062 -5.91872
RightLeg  -0.496267 -15.0412 5.10213
RightFoot  1.50912 -0.608619 5.56116
RightToes  0.000482159 0.542163 -0.142577
Spine  6.1296 -0.603107 -10.6286
Spine1  13.4085 -2.45546 4.48052
HEad  3.53495 1.39435 -0.411345
LeftShoulder1  7.65287 -12.3137 -42.0029
LeftArm  -12.1362 12.8134 -19.3047
LeftForeArm  42.151 -77.1972 -56.8746
LeftHand  -0.25398 0.0180481 5.50724
RightShoulder  5.40534 9.68859 35.0119
RightArm  -13.3786 -22.0521 28.5938
RightForeArm  71.1869 76.0475 120.706
RightHand  0.790849 -16.0194 -9.50905
LeftUpLeg  6.70205 6.44384 -7.3197
LeftLeg  12.1879 21.1813 -3.32625
LeftFoot  -16.5886 0.0478755 -1.12184
LeftToes  1.06247e-005 4.65855e-005 -8.18501e-006
153
root  4.81607 38.7405 -30.4531 92.1641 81.2439 91.5969
RightUpLeg  -23.8415 -6.24563 -5.34946
RightLeg  -5.37103 -15.4835 5.69177
RightFoot  -0.786089 -0.700334 7.41674
RightToes  0.000482159 0.542163 -0.142577
Spine  5.38078 -0.393398 -12.3821
Spine1  12.8385 -2.54673 5.91579
HEad  3.97871 0.975866 -0.677542
LeftShoulder1  7.72076 -12.4111 -42.1246
LeftArm  -11.9852 12.1571 -19.5979
LeftForeArm  39.9899 -76.8498 -54.4855
LeftHand  -0.25398 0.0180481 5.50724
RightShoulder  5.32576 9.55543 34.8233
RightArm  -13.856 -22.0947 28.7403
RightForeArm  72.0653 75.9508 121.419
RightHand  0.786529 -15.8727 -9.58561
LeftUpLeg  8.21601 10.0203 -6.57697
LeftLeg  15.3033 17.3095 -2.76591
LeftFoot  -19.0917 -0.0282534 -2.14616
LeftToes  1.06247e-005 4.65855e-005 -8.18501e-006
154
root  6.63504 38.3878 -30.7554 99.1952 82.0426 99.7064
RightUpLeg  -23.4305 -6.48925 -4.68963
RightLeg  -3.15197 -15.9993 5.86061
RightFoot  0.24048 -0.56143 5.68089
RightToes  0.000482159 0.542163 -0.142577
Spine  6.20309 -1.08517 -9.37301
Spine1  13.0337 -3.0899 4.83818
HEad  4.25226 0.635077 -1.11607
LeftShoulder1  7.75375 -12.4335 -42.2537
LeftArm  -11.915 11.6604 -19.9117
LeftForeArm  37.5703 -76.4276 -51.9545
LeftHand  -0.25398 0.0180481 5.50724
RightShoulder  5.23877 9.44091 34.5167
RightArm  -13.6569 -21.5362 28.5909
RightForeArm  70.9947 76.0392 120.717
RightHand  0.813545 -15.8423 -9.89691
LeftUpLeg  11.7477 16.0441 -3.84925
LeftLeg  17.8461 9.7515 -1.36183
LeftFoot  -20.9489 -0.17669 -3.50238
LeftToes  1.06247e-005 4.65855e-005 -8.18501e-006
155
root  8.46553 38.1117 -31.1897 112.416 83.5294 114.392
RightUpLeg  -24.2814 -9.63188 -2.28895
RightLeg  4.95165 -14.0778 4.55877
RightFoot  4.69049 0.175397 -0.823055
RightToes  0.000482159 0.542163 -0.142577
Spine  7.54233 -2.4027 -3.57711
Spine1  13.5271 -3.73686 2.39457
HEad  4.49219 0.491077 -1.66053
LeftShoulder1  7.78763 -12.4015 -42.5421
LeftArm  -11.9053 11.5049 -20.1438
LeftForeArm  35.1253 -75.9509 -49.4447
LeftHand  -0.25398 0.0180481 5.50724
RightShoulder  5.18064 9.38074 34.2578
RightArm  -13.0011 -20.675 28.1563
RightForeArm  68.4553 76.3299 118.463
RightHand  0.833556 -16.0062 -9.96747
LeftUpLeg  14.9246 21.5579 0.338533
LeftLeg  21.776 1.39806 0.569738
LeftFoot  -21.7476 -0.619123 -8.2813
LeftToes  1.06247e-005 4.65855e-005 -8.18501e-006
156
root  10.2794 37.8445 -31.4498 122.076 85.5015 125.129
RightUpLeg  -26.7812 -17.3179 4.1699
RightLeg  14.1785 -4.84472 1.20192
RightFoot  8.60429 1.53782 -8.5116
RightToes  0.000482159 0.542163 -0.142577
Spine  8.9311 -3.03626 1.72621
Spine1  13.6408 -3.63302 0.801924
HEad  4.92835 0.386253 -2.36932
LeftShoulder1  7.90375 -12.4522 -43.0709
LeftArm  -11.8217 11.5596 -20.3254
LeftForeArm  32.4866 -75.3551 -46.6714
LeftHand  -0.25398 0.0180481 5.50724
RightShoulder  5.17917 9.40206 34.1807
RightArm  -12.5433 -19.9207 27.5504
RightForeArm  65.3492 76.7346 115.044
RightHand  0.812909 -16.3882 -9.44237
LeftUpLeg  14.4535 19.3563 3.17005
LeftLeg  30.0661 2.49741 2.05718
LeftFoot  -18.1149 -0.718739 -14.6022
LeftToes  1.06247e-005 4.65855e-005 -8.18501e-006
